<svg width="22" height="22" viewBox="0 0 22 22" fill="none" xmlns="http://www.w3.org/2000/svg">
<circle cx="11" cy="11" r="11" fill="white"/>
<g clip-path="url(#clip0_5_12)">
<path d="M16.5497 4.35323C16.5497 4.15795 16.3918 4 16.1965 4H7.62708C6.4238 4 5.44739 4.97928 5.44739 6.17969V15.8203C5.44739 17.0236 6.42667 18 7.62708 18H16.1994C16.3947 18 16.5526 17.8421 16.5526 17.6468V8.00903C16.5526 7.81374 16.3947 7.65579 16.1994 7.65579H7.62708C6.81436 7.65579 6.15098 6.99241 6.15098 6.17969C6.15098 5.36697 6.81436 4.70359 7.62708 4.70359H16.1994C16.3918 4.70359 16.5497 4.54564 16.5497 4.35323ZM7.62708 8.35938H15.8462V17.2964H7.62708C6.81436 17.2964 6.15098 16.633 6.15098 15.8203V7.78215C6.53867 8.14113 7.05846 8.35938 7.62708 8.35938Z" fill="#611DF4"/>
<path d="M7.7477 5.86092C7.55242 5.86092 7.39447 6.01887 7.39447 6.21415C7.39447 6.40944 7.55242 6.56739 7.7477 6.56739H15.7916C15.9869 6.56739 16.1448 6.40944 16.1448 6.21415C16.1448 6.01887 15.9869 5.86092 15.7916 5.86092H7.7477Z" fill="#611DF4"/>
<path d="M9.11182 15.4211C9.29275 15.4901 9.49664 15.401 9.56557 15.2172L10.0796 13.8732H11.8802C11.8946 13.8732 11.9061 13.8704 11.9176 13.8704L12.4316 15.2172C12.4862 15.3579 12.6183 15.4441 12.759 15.4441C12.8021 15.4441 12.8423 15.4355 12.8854 15.4211C13.0663 15.3522 13.1582 15.1483 13.0893 14.9674L11.5385 10.9124C11.4523 10.6855 11.2398 10.5391 10.9986 10.5391C10.7574 10.5391 10.5448 10.6855 10.4587 10.9124L8.90793 14.9674C8.839 15.1483 8.9309 15.3493 9.11182 15.4211ZM10.9986 11.4667L11.6505 13.1696H10.3496L10.9986 11.4667Z" fill="#611DF4"/>
</g>
<defs>
<clipPath id="clip0_5_12">
<rect width="14" height="14" fill="white" transform="translate(4 4)"/>
</clipPath>
</defs>
</svg>
