<svg width="136" height="40" viewBox="0 0 136 40" fill="none" xmlns="http://www.w3.org/2000/svg">
<rect y="11" width="56" height="29" rx="6" fill="#611DF4"/>
<path d="M18.98 36C18.4333 36 18.0267 35.92 17.76 35.76C17.4933 35.6 17.3 35.4 17.18 35.16C16.4867 33.7333 15.8333 32.3667 15.22 31.06C14.62 29.7533 14.0067 28.4333 13.38 27.1C13.3933 28.54 13.4133 29.9733 13.44 31.4C13.4667 32.8267 13.4933 34.26 13.52 35.7C13.52 35.9 13.4133 36 13.2 36H12.1C11.34 36 10.8 35.8533 10.48 35.56C10.1733 35.2533 10.02 34.8067 10.02 34.22C10.02 34.06 10.0267 33.7933 10.04 33.42C10.0667 33.0333 10.1 32.58 10.14 32.06C10.18 31.54 10.22 30.9733 10.26 30.36C10.3133 29.7333 10.3667 29.1 10.42 28.46C10.5 27.4467 10.5667 26.6067 10.62 25.94C10.6733 25.2733 10.7133 24.7133 10.74 24.26C10.78 23.7933 10.8067 23.4 10.82 23.08C10.8333 22.7467 10.8467 22.42 10.86 22.1C10.86 21.9 10.9667 21.8 11.18 21.8H12.78C13.22 21.8 13.58 21.8533 13.86 21.96C14.14 22.0533 14.3667 22.1867 14.54 22.36C14.7267 22.5333 14.8733 22.7333 14.98 22.96C15.0867 23.1733 15.1867 23.4 15.28 23.64C15.6 24.4667 15.88 25.18 16.12 25.78C16.3733 26.38 16.5933 26.9067 16.78 27.36C16.9667 27.8133 17.1267 28.2067 17.26 28.54C17.4067 28.8733 17.54 29.18 17.66 29.46C17.78 29.74 17.9 30.0133 18.02 30.28C18.14 30.5333 18.2667 30.8133 18.4 31.12C18.4 30.3333 18.3933 29.5267 18.38 28.7C18.38 27.86 18.3733 27.0467 18.36 26.26C18.36 25.46 18.3533 24.6933 18.34 23.96C18.34 23.2267 18.34 22.5667 18.34 21.98C18.34 21.86 18.4533 21.8 18.68 21.8H19.78C20.22 21.8 20.5667 21.8467 20.82 21.94C21.0867 22.02 21.2933 22.1467 21.44 22.32C21.5867 22.48 21.68 22.68 21.72 22.92C21.7733 23.16 21.8 23.4333 21.8 23.74C21.8 24.0733 21.78 24.5867 21.74 25.28C21.7 25.96 21.6533 26.7267 21.6 27.58C21.5467 28.4333 21.4867 29.32 21.42 30.24C21.3533 31.1467 21.2867 31.9867 21.22 32.76C21.1667 33.5333 21.1133 34.1933 21.06 34.74C21.02 35.2733 20.9933 35.5867 20.98 35.68C20.98 35.7867 20.94 35.8667 20.86 35.92C20.7933 35.9733 20.7133 36 20.62 36H18.98ZM30.0895 21.8C30.4229 21.8 30.6962 21.8667 30.9095 22C31.1362 22.12 31.3229 22.2867 31.4695 22.5C31.6162 22.7 31.7362 22.9333 31.8295 23.2C31.9229 23.4667 32.0029 23.74 32.0695 24.02C32.6029 26.18 33.0429 27.96 33.3895 29.36C33.7362 30.76 34.0095 31.8933 34.2095 32.76C34.4095 33.6133 34.5495 34.2467 34.6295 34.66C34.7095 35.0733 34.7495 35.36 34.7495 35.52C34.7495 35.7067 34.7029 35.8333 34.6095 35.9C34.5295 35.9667 34.3962 36 34.2095 36H33.1895C32.6162 36 32.1562 35.9333 31.8095 35.8C31.4762 35.6533 31.2162 35.4467 31.0295 35.18C30.8562 34.9133 30.7295 34.5933 30.6495 34.22C30.5695 33.8333 30.5029 33.4 30.4495 32.92H26.9695L26.3095 35.68C26.2429 35.8933 26.0895 36 25.8495 36H24.7895C24.5762 36 24.3562 35.98 24.1295 35.94C23.9029 35.8867 23.6962 35.8067 23.5095 35.7C23.3362 35.5933 23.1895 35.46 23.0695 35.3C22.9495 35.1267 22.8895 34.92 22.8895 34.68C22.8895 34.3867 22.9829 33.9067 23.1695 33.24C23.3562 32.5733 23.5895 31.82 23.8695 30.98C24.1629 30.1267 24.4829 29.24 24.8295 28.32C25.1895 27.3867 25.5362 26.5067 25.8695 25.68C26.2029 24.8533 26.5029 24.1267 26.7695 23.5C27.0495 22.8733 27.2629 22.4333 27.4095 22.18C27.5162 21.9933 27.6095 21.8867 27.6895 21.86C27.7829 21.82 27.9495 21.8 28.1895 21.8H30.0895ZM27.6895 30.02H29.9895L29.1495 24.74L27.6895 30.02ZM41.6723 21.6C42.9257 21.6 43.8523 21.8733 44.4523 22.42C45.0657 22.9667 45.3723 23.68 45.3723 24.56C45.3723 25.3067 45.1657 25.88 44.7523 26.28C44.339 26.6667 43.7457 26.86 42.9723 26.86C42.7323 26.86 42.579 26.84 42.5123 26.8C42.4457 26.7467 42.4123 26.6467 42.4123 26.5C42.4123 26.3667 42.399 26.1933 42.3723 25.98C42.359 25.7667 42.3123 25.56 42.2323 25.36C42.1523 25.16 42.0257 24.9933 41.8523 24.86C41.679 24.7133 41.439 24.64 41.1323 24.64C40.7057 24.64 40.3257 24.7733 39.9923 25.04C39.659 25.2933 39.4923 25.6267 39.4923 26.04C39.4923 26.4 39.6257 26.6933 39.8923 26.92C40.1723 27.1467 40.519 27.36 40.9323 27.56C41.3457 27.7467 41.7923 27.94 42.2723 28.14C42.7657 28.34 43.219 28.6067 43.6323 28.94C44.0457 29.26 44.3857 29.6667 44.6523 30.16C44.9323 30.64 45.0723 31.2533 45.0723 32C45.0723 32.5867 44.9723 33.14 44.7723 33.66C44.5857 34.1667 44.299 34.6133 43.9123 35C43.539 35.3733 43.059 35.6667 42.4723 35.88C41.899 36.0933 41.2257 36.2 40.4523 36.2C39.7857 36.2 39.1657 36.1267 38.5923 35.98C38.0323 35.8333 37.539 35.6533 37.1123 35.44C36.699 35.2133 36.3723 34.9733 36.1323 34.72C35.8923 34.4533 35.7723 34.2133 35.7723 34C35.7723 33.12 35.819 32.4867 35.9123 32.1C36.019 31.7133 36.2057 31.52 36.4723 31.52C36.659 31.52 36.8523 31.6 37.0523 31.76C37.2657 31.92 37.5057 32.1 37.7723 32.3C38.039 32.5 38.3457 32.68 38.6923 32.84C39.0523 33 39.4657 33.08 39.9323 33.08C40.119 33.08 40.299 33.0667 40.4723 33.04C40.659 33 40.819 32.94 40.9523 32.86C41.099 32.78 41.2123 32.6733 41.2923 32.54C41.3857 32.4067 41.4323 32.2467 41.4323 32.06C41.4323 31.7267 41.3057 31.46 41.0523 31.26C40.799 31.06 40.479 30.88 40.0923 30.72C39.7057 30.5467 39.2857 30.3733 38.8323 30.2C38.3923 30.0133 37.979 29.7667 37.5923 29.46C37.2057 29.14 36.8857 28.7333 36.6323 28.24C36.379 27.7467 36.2523 27.1133 36.2523 26.34C36.2523 25.4733 36.4123 24.74 36.7323 24.14C37.0657 23.54 37.4857 23.0533 37.9923 22.68C38.5123 22.2933 39.0923 22.02 39.7323 21.86C40.3857 21.6867 41.0323 21.6 41.6723 21.6Z" fill="white"/>
<path d="M69.1 35C68.3533 35 67.82 34.8533 67.5 34.56C67.18 34.2667 67.02 33.8467 67.02 33.3C67.02 33.0333 67.04 32.58 67.08 31.94C67.12 31.2867 67.1733 30.5467 67.24 29.72C67.3067 28.8933 67.3733 28.02 67.44 27.1C67.5067 26.18 67.5733 25.3133 67.64 24.5C67.7067 23.6867 67.76 22.9733 67.8 22.36C67.84 21.7467 67.86 21.3267 67.86 21.1C67.86 20.9 67.9667 20.8 68.18 20.8H69.28C70.0267 20.8 70.54 20.9467 70.82 21.24C71.1133 21.52 71.26 21.94 71.26 22.5C71.26 22.5667 71.2533 22.6267 71.24 22.68C71.24 22.7333 71.24 22.7933 71.24 22.86L70.58 32.2H74.18C74.26 32.2 74.3333 32.2267 74.4 32.28C74.4667 32.32 74.5 32.3867 74.5 32.48L74.42 33.66C74.3933 34.06 74.28 34.3867 74.08 34.64C73.8933 34.88 73.5 35 72.9 35H69.1ZM77.8448 35C77.4315 35 77.0915 34.96 76.8248 34.88C76.5715 34.7867 76.3648 34.66 76.2048 34.5C76.0582 34.34 75.9515 34.1467 75.8848 33.92C75.8315 33.68 75.8048 33.4067 75.8048 33.1C75.8048 32.9 75.8115 32.62 75.8248 32.26C75.8515 31.8867 75.8915 31.38 75.9448 30.74C75.9982 30.0867 76.0582 29.2667 76.1248 28.28C76.2048 27.28 76.2982 26.0467 76.4048 24.58C76.4182 24.2867 76.4515 24.1133 76.5048 24.06C76.5448 24.02 76.6515 24 76.8248 24H77.6048C78.0182 24 78.3515 24.04 78.6048 24.12C78.8715 24.2 79.0782 24.32 79.2248 24.48C79.3848 24.64 79.4915 24.8333 79.5448 25.06C79.6115 25.2867 79.6448 25.54 79.6448 25.82C79.6448 26.02 79.6315 26.32 79.6048 26.72C79.5782 27.12 79.5382 27.6667 79.4848 28.36C79.4448 29.04 79.3848 29.8933 79.3048 30.92C79.2248 31.9333 79.1248 33.16 79.0048 34.6C78.9915 34.76 78.9582 34.8667 78.9048 34.92C78.8515 34.9733 78.7382 35 78.5648 35H77.8448ZM76.4248 21.64C76.4248 21.1067 76.6182 20.6867 77.0048 20.38C77.3915 20.0733 77.9115 19.92 78.5648 19.92C79.1382 19.92 79.5515 20.04 79.8048 20.28C80.0715 20.5067 80.2048 20.8133 80.2048 21.2C80.2048 21.6933 80.0182 22.1067 79.6448 22.44C79.2848 22.76 78.7515 22.92 78.0448 22.92C76.9648 22.92 76.4248 22.4933 76.4248 21.64ZM85.9898 35.2C84.9632 35.2 84.1498 35.0533 83.5498 34.76C82.9498 34.4533 82.4965 34.0733 82.1898 33.62C81.8832 33.1667 81.6898 32.68 81.6098 32.16C81.5298 31.6267 81.4898 31.14 81.4898 30.7C81.4898 30.5267 81.5032 30.1867 81.5298 29.68C81.5698 29.1733 81.6165 28.5867 81.6698 27.92C81.7232 27.2533 81.7765 26.5467 81.8298 25.8C81.8832 25.04 81.9365 24.3267 81.9898 23.66C82.0432 22.98 82.0832 22.38 82.1098 21.86C82.1498 21.34 82.1698 20.98 82.1698 20.78C82.1698 20.4867 82.1898 20.32 82.2298 20.28C82.2698 20.2267 82.3898 20.2 82.5898 20.2H83.3698C83.7698 20.2 84.1032 20.2467 84.3698 20.34C84.6365 20.4333 84.8498 20.56 85.0098 20.72C85.1698 20.88 85.2832 21.0667 85.3498 21.28C85.4165 21.48 85.4498 21.7 85.4498 21.94C85.4498 22.1667 85.4232 22.6067 85.3698 23.26C85.3298 23.9133 85.2765 24.68 85.2098 25.56C85.5565 24.96 85.9498 24.52 86.3898 24.24C86.8298 23.9467 87.4098 23.8 88.1298 23.8C89.3432 23.8 90.2698 24.2 90.9098 25C91.5632 25.8 91.8898 26.9933 91.8898 28.58C91.8898 28.9933 91.8565 29.4467 91.7898 29.94C91.7365 30.4333 91.6298 30.9267 91.4698 31.42C91.3232 31.9 91.1098 32.3733 90.8298 32.84C90.5632 33.2933 90.2098 33.6933 89.7698 34.04C89.3298 34.3867 88.7965 34.6667 88.1698 34.88C87.5565 35.0933 86.8298 35.2 85.9898 35.2ZM86.8898 26.46C86.4098 26.46 86.0298 26.5867 85.7498 26.84C85.4832 27.0933 85.2765 27.4 85.1298 27.76C84.9832 28.12 84.8898 28.5067 84.8498 28.92C84.8098 29.32 84.7898 29.6733 84.7898 29.98C84.7898 30.9 84.9165 31.56 85.1698 31.96C85.4232 32.3467 85.8032 32.54 86.3098 32.54C86.7898 32.54 87.1632 32.3933 87.4298 32.1C87.7098 31.7933 87.9165 31.4333 88.0498 31.02C88.1965 30.6067 88.2898 30.1867 88.3298 29.76C88.3698 29.3333 88.3898 29 88.3898 28.76C88.3898 28.0133 88.2765 27.4467 88.0498 27.06C87.8232 26.66 87.4365 26.46 86.8898 26.46ZM99.862 28.78C99.782 28.78 99.6887 28.78 99.582 28.78C99.4887 28.7667 99.3954 28.7533 99.302 28.74C99.2087 28.7133 99.1287 28.6867 99.062 28.66C98.9954 28.62 98.962 28.5733 98.962 28.52C98.962 28.3467 98.9687 28.1867 98.982 28.04C98.9954 27.8933 99.002 27.74 99.002 27.58C99.002 27.2867 98.962 27.0467 98.882 26.86C98.802 26.6733 98.642 26.58 98.402 26.58C98.0287 26.58 97.7154 26.8267 97.462 27.32C97.222 27.8 97.0687 28.5267 97.002 29.5C96.9754 29.9267 96.9354 30.4133 96.882 30.96C96.842 31.4933 96.802 32.0133 96.762 32.52C96.722 33.0133 96.6887 33.4533 96.662 33.84C96.6354 34.2267 96.622 34.48 96.622 34.6C96.622 34.7333 96.5754 34.8333 96.482 34.9C96.3887 34.9667 96.2887 35 96.182 35H95.462C95.0487 35 94.7087 34.96 94.442 34.88C94.1887 34.7867 93.982 34.66 93.822 34.5C93.6754 34.34 93.5687 34.1467 93.502 33.92C93.4487 33.68 93.422 33.4067 93.422 33.1C93.422 32.9 93.4287 32.62 93.442 32.26C93.4687 31.8867 93.5087 31.38 93.562 30.74C93.6154 30.0867 93.6754 29.2667 93.742 28.28C93.822 27.28 93.9154 26.0467 94.022 24.58C94.0487 24.1933 94.1887 24 94.442 24H95.222C95.5954 24 95.9087 24.04 96.162 24.12C96.4154 24.2 96.622 24.3133 96.782 24.46C96.942 24.5933 97.0554 24.7533 97.122 24.94C97.202 25.1267 97.2554 25.32 97.282 25.52C97.442 25.2133 97.6287 24.9533 97.842 24.74C98.0687 24.5133 98.302 24.3333 98.542 24.2C98.782 24.0533 99.0287 23.9533 99.282 23.9C99.5354 23.8333 99.7687 23.8 99.982 23.8C100.235 23.8 100.489 23.8467 100.742 23.94C101.009 24.0333 101.249 24.1733 101.462 24.36C101.675 24.5467 101.842 24.7867 101.962 25.08C102.095 25.3733 102.162 25.72 102.162 26.12C102.162 26.48 102.109 26.82 102.002 27.14C101.895 27.46 101.742 27.7467 101.542 28C101.342 28.24 101.095 28.4333 100.802 28.58C100.522 28.7133 100.209 28.78 99.862 28.78ZM102.294 32.54C102.294 31.34 102.834 30.4 103.914 29.72C104.994 29.04 106.588 28.6733 108.694 28.62C108.708 28.4733 108.714 28.3533 108.714 28.26C108.728 28.1533 108.734 28.0267 108.734 27.88C108.734 27.4533 108.654 27.1133 108.494 26.86C108.334 26.6067 108.001 26.48 107.494 26.48C107.214 26.48 106.988 26.52 106.814 26.6C106.641 26.68 106.501 26.7933 106.394 26.94C106.288 27.0733 106.201 27.24 106.134 27.44C106.068 27.64 106.008 27.86 105.954 28.1C105.928 28.22 105.868 28.3 105.774 28.34C105.681 28.3667 105.534 28.38 105.334 28.38C103.974 28.38 103.294 27.8667 103.294 26.84C103.294 26.4267 103.388 26.0333 103.574 25.66C103.774 25.2867 104.061 24.9667 104.434 24.7C104.821 24.42 105.301 24.2 105.874 24.04C106.448 23.88 107.114 23.8 107.874 23.8C109.354 23.8 110.428 24.1067 111.094 24.72C111.761 25.3333 112.094 26.2 112.094 27.32C112.094 27.4667 112.074 27.7333 112.034 28.12C112.008 28.4933 111.968 28.8933 111.914 29.32C111.874 29.7333 111.834 30.1267 111.794 30.5C111.768 30.8733 111.754 31.1333 111.754 31.28C111.754 31.6133 111.814 31.8533 111.934 32C112.054 32.1333 112.188 32.2267 112.334 32.28C112.494 32.3333 112.634 32.3733 112.754 32.4C112.874 32.4267 112.934 32.4933 112.934 32.6C112.934 32.8933 112.894 33.1933 112.814 33.5C112.734 33.8067 112.601 34.0867 112.414 34.34C112.241 34.5933 111.994 34.8 111.674 34.96C111.368 35.12 110.988 35.2 110.534 35.2C109.894 35.2 109.414 35.0467 109.094 34.74C108.774 34.4333 108.561 34.0067 108.454 33.46C108.134 33.9267 107.714 34.3333 107.194 34.68C106.688 35.0267 106.021 35.2 105.194 35.2C104.794 35.2 104.414 35.1533 104.054 35.06C103.708 34.9667 103.401 34.8133 103.134 34.6C102.881 34.3867 102.674 34.1133 102.514 33.78C102.368 33.4333 102.294 33.02 102.294 32.54ZM108.514 30.26C108.168 30.26 107.828 30.2867 107.494 30.34C107.161 30.3933 106.861 30.48 106.594 30.6C106.341 30.7067 106.134 30.8533 105.974 31.04C105.814 31.2267 105.734 31.4533 105.734 31.72C105.734 32.0267 105.828 32.24 106.014 32.36C106.214 32.48 106.428 32.54 106.654 32.54C106.868 32.54 107.081 32.4933 107.294 32.4C107.508 32.3067 107.694 32.1667 107.854 31.98C108.028 31.78 108.174 31.54 108.294 31.26C108.414 30.98 108.488 30.6467 108.514 30.26ZM120.624 28.78C120.544 28.78 120.45 28.78 120.344 28.78C120.25 28.7667 120.157 28.7533 120.064 28.74C119.97 28.7133 119.89 28.6867 119.824 28.66C119.757 28.62 119.724 28.5733 119.724 28.52C119.724 28.3467 119.73 28.1867 119.744 28.04C119.757 27.8933 119.764 27.74 119.764 27.58C119.764 27.2867 119.724 27.0467 119.644 26.86C119.564 26.6733 119.404 26.58 119.164 26.58C118.79 26.58 118.477 26.8267 118.224 27.32C117.984 27.8 117.83 28.5267 117.764 29.5C117.737 29.9267 117.697 30.4133 117.644 30.96C117.604 31.4933 117.564 32.0133 117.524 32.52C117.484 33.0133 117.45 33.4533 117.424 33.84C117.397 34.2267 117.384 34.48 117.384 34.6C117.384 34.7333 117.337 34.8333 117.244 34.9C117.15 34.9667 117.05 35 116.944 35H116.224C115.81 35 115.47 34.96 115.204 34.88C114.95 34.7867 114.744 34.66 114.584 34.5C114.437 34.34 114.33 34.1467 114.264 33.92C114.21 33.68 114.184 33.4067 114.184 33.1C114.184 32.9 114.19 32.62 114.204 32.26C114.23 31.8867 114.27 31.38 114.324 30.74C114.377 30.0867 114.437 29.2667 114.504 28.28C114.584 27.28 114.677 26.0467 114.784 24.58C114.81 24.1933 114.95 24 115.204 24H115.984C116.357 24 116.67 24.04 116.924 24.12C117.177 24.2 117.384 24.3133 117.544 24.46C117.704 24.5933 117.817 24.7533 117.884 24.94C117.964 25.1267 118.017 25.32 118.044 25.52C118.204 25.2133 118.39 24.9533 118.604 24.74C118.83 24.5133 119.064 24.3333 119.304 24.2C119.544 24.0533 119.79 23.9533 120.044 23.9C120.297 23.8333 120.53 23.8 120.744 23.8C120.997 23.8 121.25 23.8467 121.504 23.94C121.77 24.0333 122.01 24.1733 122.224 24.36C122.437 24.5467 122.604 24.7867 122.724 25.08C122.857 25.3733 122.924 25.72 122.924 26.12C122.924 26.48 122.87 26.82 122.764 27.14C122.657 27.46 122.504 27.7467 122.304 28C122.104 28.24 121.857 28.4333 121.564 28.58C121.284 28.7133 120.97 28.78 120.624 28.78ZM127.554 25.84C127.554 26.1467 127.534 26.5133 127.494 26.94C127.454 27.3533 127.407 27.7733 127.354 28.2C127.314 28.6133 127.274 29.0067 127.234 29.38C127.194 29.74 127.174 30.02 127.174 30.22C127.174 30.7267 127.294 31.1067 127.534 31.36C127.787 31.6 128.094 31.72 128.454 31.72C129.081 31.72 129.581 31.3933 129.954 30.74C130.327 30.0867 130.561 29.22 130.654 28.14L130.974 24.4C130.987 24.2533 131.034 24.1533 131.114 24.1C131.207 24.0333 131.307 24 131.414 24H132.134C132.414 24 132.674 24.0267 132.914 24.08C133.167 24.12 133.387 24.2067 133.574 24.34C133.761 24.46 133.907 24.6267 134.014 24.84C134.121 25.0533 134.174 25.3267 134.174 25.66C134.174 25.7933 134.161 26.0467 134.134 26.42C134.121 26.78 134.087 27.3067 134.034 28C133.994 28.68 133.934 29.5467 133.854 30.6C133.774 31.64 133.681 32.9133 133.574 34.42C133.507 35.3 133.307 36.0267 132.974 36.6C132.654 37.1867 132.247 37.6467 131.754 37.98C131.261 38.3267 130.707 38.5667 130.094 38.7C129.481 38.8333 128.854 38.9 128.214 38.9C127.534 38.9 126.907 38.84 126.334 38.72C125.774 38.6 125.287 38.4333 124.874 38.22C124.461 38.0067 124.134 37.76 123.894 37.48C123.667 37.2 123.554 36.9 123.554 36.58C123.554 36.3267 123.607 36.1067 123.714 35.92C123.834 35.7333 123.987 35.58 124.174 35.46C124.361 35.34 124.574 35.2467 124.814 35.18C125.067 35.1267 125.327 35.1 125.594 35.1C125.727 35.1 125.821 35.1667 125.874 35.3C125.941 35.4333 126.034 35.58 126.154 35.74C126.287 35.9133 126.494 36.0667 126.774 36.2C127.054 36.3333 127.474 36.4 128.034 36.4C128.527 36.4 128.927 36.28 129.234 36.04C129.541 35.8 129.774 35.4933 129.934 35.12C130.107 34.7467 130.221 34.34 130.274 33.9C130.327 33.46 130.354 33.04 130.354 32.64C130.141 33.0133 129.901 33.32 129.634 33.56C129.381 33.7867 129.114 33.9667 128.834 34.1C128.554 34.22 128.274 34.3 127.994 34.34C127.714 34.38 127.447 34.4 127.194 34.4C126.701 34.4 126.247 34.3333 125.834 34.2C125.434 34.0667 125.087 33.8533 124.794 33.56C124.501 33.2533 124.274 32.86 124.114 32.38C123.954 31.9 123.874 31.32 123.874 30.64C123.874 30.3867 123.887 30.0533 123.914 29.64C123.941 29.2133 123.974 28.74 124.014 28.22C124.054 27.6867 124.094 27.1133 124.134 26.5C124.187 25.8867 124.241 25.26 124.294 24.62C124.321 24.2067 124.507 24 124.854 24H125.494C125.921 24 126.267 24.04 126.534 24.12C126.801 24.2 127.007 24.32 127.154 24.48C127.314 24.6267 127.421 24.82 127.474 25.06C127.527 25.2867 127.554 25.5467 127.554 25.84Z" fill="white"/>
<circle cx="56" cy="11" r="11" fill="white"/>
<g clip-path="url(#clip0_5_14)">
<path d="M61.5497 4.35323C61.5497 4.15795 61.3918 4 61.1965 4H52.6271C51.4238 4 50.4474 4.97928 50.4474 6.17969V15.8203C50.4474 17.0236 51.4267 18 52.6271 18H61.1994C61.3947 18 61.5526 17.8421 61.5526 17.6468V8.00903C61.5526 7.81374 61.3947 7.65579 61.1994 7.65579H52.6271C51.8144 7.65579 51.151 6.99241 51.151 6.17969C51.151 5.36697 51.8144 4.70359 52.6271 4.70359H61.1994C61.3918 4.70359 61.5497 4.54564 61.5497 4.35323ZM52.6271 8.35938H60.8462V17.2964H52.6271C51.8144 17.2964 51.151 16.633 51.151 15.8203V7.78215C51.5387 8.14113 52.0585 8.35938 52.6271 8.35938Z" fill="#611DF4"/>
<path d="M52.7477 5.86092C52.5524 5.86092 52.3945 6.01887 52.3945 6.21415C52.3945 6.40944 52.5524 6.56739 52.7477 6.56739H60.7916C60.9869 6.56739 61.1448 6.40944 61.1448 6.21415C61.1448 6.01887 60.9869 5.86092 60.7916 5.86092H52.7477Z" fill="#611DF4"/>
<path d="M54.1118 15.4211C54.2927 15.4901 54.4966 15.401 54.5656 15.2172L55.0796 13.8732H56.8802C56.8946 13.8732 56.9061 13.8704 56.9176 13.8704L57.4316 15.2172C57.4862 15.3579 57.6183 15.4441 57.759 15.4441C57.8021 15.4441 57.8423 15.4355 57.8854 15.4211C58.0663 15.3522 58.1582 15.1483 58.0893 14.9674L56.5385 10.9124C56.4523 10.6855 56.2398 10.5391 55.9986 10.5391C55.7574 10.5391 55.5448 10.6855 55.4587 10.9124L53.9079 14.9674C53.839 15.1483 53.9309 15.3493 54.1118 15.4211ZM55.9986 11.4667L56.6505 13.1696H55.3496L55.9986 11.4667Z" fill="#611DF4"/>
</g>
<defs>
<clipPath id="clip0_5_14">
<rect width="14" height="14" fill="white" transform="translate(49 4)"/>
</clipPath>
</defs>
</svg>
